# xmcd
#
# Track frame offsets:
#  150
#  17142
#  30717
#  50915
#  66810
#  81957
#  100407
#  113200
#  130032
#  142782
#  157897
#  174280
#
# Disc length: 2526 seconds
#
# Revision: 0
# Processed by: cddbd v1.5.1PL2 Copyright (c) Steve Scherf et al.
# Submitted via: Collectorz.com_Music_Collector 6.10
#
DISCID=9809dc0c
DTITLE=Various Artist - Mad About Music - Country
DYEAR=1993
DGENRE=PolyGram
TTITLE0=Billy Ray Cyrus - Somebody New
TTITLE1=Shelby Lynne - Feelin' Kind Of Lonely Tonight
TTITLE2=Cindy Church - A Song For Brent
TTITLE3=Sammy Kershaw - Queen of My Double Wide Trailer
TTITLE4=Twister Alley - Dance
TTITLE5=Kathy Mattea - There's A New Kid In Town
TTITLE6=Toby Keith - A Little Less Talk And A Lot More Action
TTITLE7=Ronna Reeves - He's My Weakness
TTITLE8=Shania Twain - You Lay A Whole Lot Of Love On Me
TTITLE9=John Brannen - As Far As My Eyes Can See
TTITLE10=Jeff Knight - Easy Street
TTITLE11=The Breeders - Drivin' On
EXTD=
EXTT0=
EXTT1=
EXTT2=
EXTT3=
EXTT4=
EXTT5=
EXTT6=
EXTT7=
EXTT8=
EXTT9=
EXTT10=
EXTT11=
PLAYORDER=
